<svg width="175" height="31" viewBox="0 0 175 31" fill="none" xmlns="http://www.w3.org/2000/svg">
<path d="M4.23438 1.25V24H0.3125V1.25H4.23438ZM13.5156 11.2031V14.3125H3.23438V11.2031H13.5156ZM14.8125 1.25V4.375H3.23438V1.25H14.8125ZM21.5938 0V24H17.8125V0H21.5938ZM25 15.7344V15.375C25 14.1562 25.1771 13.026 25.5312 11.9844C25.8854 10.9323 26.3958 10.0208 27.0625 9.25C27.7396 8.46875 28.5625 7.86458 29.5312 7.4375C30.5104 7 31.6146 6.78125 32.8438 6.78125C34.0833 6.78125 35.1875 7 36.1562 7.4375C37.1354 7.86458 37.9635 8.46875 38.6406 9.25C39.3177 10.0208 39.8333 10.9323 40.1875 11.9844C40.5417 13.026 40.7188 14.1562 40.7188 15.375V15.7344C40.7188 16.9531 40.5417 18.0833 40.1875 19.125C39.8333 20.1667 39.3177 21.0781 38.6406 21.8594C37.9635 22.6302 37.1406 23.2344 36.1719 23.6719C35.2031 24.099 34.1042 24.3125 32.875 24.3125C31.6354 24.3125 30.526 24.099 29.5469 23.6719C28.5781 23.2344 27.7552 22.6302 27.0781 21.8594C26.401 21.0781 25.8854 20.1667 25.5312 19.125C25.1771 18.0833 25 16.9531 25 15.7344ZM28.7656 15.375V15.7344C28.7656 16.4948 28.8438 17.2135 29 17.8906C29.1562 18.5677 29.401 19.1615 29.7344 19.6719C30.0677 20.1823 30.4948 20.5833 31.0156 20.875C31.5365 21.1667 32.1562 21.3125 32.875 21.3125C33.5729 21.3125 34.1771 21.1667 34.6875 20.875C35.2083 20.5833 35.6354 20.1823 35.9688 19.6719C36.3021 19.1615 36.5469 18.5677 36.7031 17.8906C36.8698 17.2135 36.9531 16.4948 36.9531 15.7344V15.375C36.9531 14.625 36.8698 13.9167 36.7031 13.25C36.5469 12.5729 36.2969 11.974 35.9531 11.4531C35.6198 10.9323 35.1927 10.526 34.6719 10.2344C34.1615 9.93229 33.5521 9.78125 32.8438 9.78125C32.1354 9.78125 31.5208 9.93229 31 10.2344C30.4896 10.526 30.0677 10.9323 29.7344 11.4531C29.401 11.974 29.1562 12.5729 29 13.25C28.8438 13.9167 28.7656 14.625 28.7656 15.375ZM48.4688 20.25L52.375 7.09375H54.7812L54.125 11.0312L50.1875 24H48.0312L48.4688 20.25ZM46.1719 7.09375L49.2188 20.3125L49.4688 24H47.0625L42.4844 7.09375H46.1719ZM58.4375 20.1562L61.3906 7.09375H65.0625L60.5 24H58.0938L58.4375 20.1562ZM55.1875 7.09375L59.0469 20.0938L59.5312 24H57.375L53.3906 11.0156L52.7344 7.09375H55.1875ZM75.0781 24.3125C73.8281 24.3125 72.6979 24.1094 71.6875 23.7031C70.6875 23.2865 69.8333 22.7083 69.125 21.9688C68.4271 21.2292 67.8906 20.3594 67.5156 19.3594C67.1406 18.3594 66.9531 17.2812 66.9531 16.125V15.5C66.9531 14.1771 67.1458 12.9792 67.5312 11.9062C67.9167 10.8333 68.4531 9.91667 69.1406 9.15625C69.8281 8.38542 70.6406 7.79688 71.5781 7.39062C72.5156 6.98438 73.5312 6.78125 74.625 6.78125C75.8333 6.78125 76.8906 6.98438 77.7969 7.39062C78.7031 7.79688 79.4531 8.36979 80.0469 9.10938C80.651 9.83854 81.099 10.7083 81.3906 11.7188C81.6927 12.7292 81.8438 13.8438 81.8438 15.0625V16.6719H68.7812V13.9688H78.125V13.6719C78.1042 12.9948 77.9688 12.3594 77.7188 11.7656C77.4792 11.1719 77.1094 10.6927 76.6094 10.3281C76.1094 9.96354 75.4427 9.78125 74.6094 9.78125C73.9844 9.78125 73.4271 9.91667 72.9375 10.1875C72.4583 10.4479 72.0573 10.8281 71.7344 11.3281C71.4115 11.8281 71.1615 12.4323 70.9844 13.1406C70.8177 13.8385 70.7344 14.625 70.7344 15.5V16.125C70.7344 16.8646 70.8333 17.5521 71.0312 18.1875C71.2396 18.8125 71.5417 19.3594 71.9375 19.8281C72.3333 20.2969 72.8125 20.6667 73.375 20.9375C73.9375 21.1979 74.5781 21.3281 75.2969 21.3281C76.2031 21.3281 77.0104 21.1458 77.7188 20.7812C78.4271 20.4167 79.0417 19.901 79.5625 19.2344L81.5469 21.1562C81.1823 21.6875 80.7083 22.1979 80.125 22.6875C79.5417 23.1667 78.8281 23.5573 77.9844 23.8594C77.151 24.1615 76.1823 24.3125 75.0781 24.3125ZM88.5625 10.3125V24H84.7969V7.09375H88.3906L88.5625 10.3125ZM93.7344 6.98438L93.7031 10.4844C93.474 10.4427 93.224 10.4115 92.9531 10.3906C92.6927 10.3698 92.4323 10.3594 92.1719 10.3594C91.526 10.3594 90.9583 10.4531 90.4688 10.6406C89.9792 10.8177 89.5677 11.0781 89.2344 11.4219C88.9115 11.7552 88.6615 12.1615 88.4844 12.6406C88.3073 13.1198 88.2031 13.6562 88.1719 14.25L87.3125 14.3125C87.3125 13.25 87.4167 12.2656 87.625 11.3594C87.8333 10.4531 88.1458 9.65625 88.5625 8.96875C88.9896 8.28125 89.5208 7.74479 90.1562 7.35938C90.8021 6.97396 91.5469 6.78125 92.3906 6.78125C92.6198 6.78125 92.8646 6.80208 93.125 6.84375C93.3958 6.88542 93.599 6.93229 93.7344 6.98438Z" fill="#FF8F52"/>
<path d="M116.406 18.1406C116.406 17.6719 116.333 17.2552 116.188 16.8906C116.052 16.526 115.807 16.1927 115.453 15.8906C115.099 15.5885 114.599 15.2969 113.953 15.0156C113.318 14.724 112.505 14.4271 111.516 14.125C110.432 13.7917 109.432 13.4219 108.516 13.0156C107.609 12.599 106.818 12.1198 106.141 11.5781C105.464 11.026 104.938 10.3958 104.562 9.6875C104.188 8.96875 104 8.14062 104 7.20312C104 6.27604 104.193 5.43229 104.578 4.67188C104.974 3.91146 105.531 3.25521 106.25 2.70312C106.979 2.14062 107.839 1.70833 108.828 1.40625C109.818 1.09375 110.911 0.9375 112.109 0.9375C113.797 0.9375 115.25 1.25 116.469 1.875C117.698 2.5 118.641 3.33854 119.297 4.39062C119.964 5.44271 120.297 6.60417 120.297 7.875H116.406C116.406 7.125 116.245 6.46354 115.922 5.89062C115.609 5.30729 115.13 4.84896 114.484 4.51562C113.849 4.18229 113.042 4.01562 112.062 4.01562C111.135 4.01562 110.365 4.15625 109.75 4.4375C109.135 4.71875 108.677 5.09896 108.375 5.57812C108.073 6.05729 107.922 6.59896 107.922 7.20312C107.922 7.63021 108.021 8.02083 108.219 8.375C108.417 8.71875 108.719 9.04167 109.125 9.34375C109.531 9.63542 110.042 9.91146 110.656 10.1719C111.271 10.4323 111.995 10.6823 112.828 10.9219C114.089 11.2969 115.188 11.7135 116.125 12.1719C117.062 12.6198 117.844 13.1302 118.469 13.7031C119.094 14.276 119.562 14.9271 119.875 15.6562C120.188 16.375 120.344 17.1927 120.344 18.1094C120.344 19.0677 120.151 19.9323 119.766 20.7031C119.38 21.4635 118.828 22.1146 118.109 22.6562C117.401 23.1875 116.547 23.599 115.547 23.8906C114.557 24.1719 113.453 24.3125 112.234 24.3125C111.141 24.3125 110.062 24.1667 109 23.875C107.948 23.5833 106.99 23.1406 106.125 22.5469C105.26 21.9427 104.573 21.1927 104.062 20.2969C103.552 19.3906 103.297 18.3333 103.297 17.125H107.219C107.219 17.8646 107.344 18.4948 107.594 19.0156C107.854 19.5365 108.214 19.9635 108.672 20.2969C109.13 20.6198 109.661 20.8594 110.266 21.0156C110.88 21.1719 111.536 21.25 112.234 21.25C113.151 21.25 113.917 21.1198 114.531 20.8594C115.156 20.599 115.625 20.2344 115.938 19.7656C116.25 19.2969 116.406 18.7552 116.406 18.1406ZM127.156 0V24H123.406V0H127.156ZM126.5 14.9219L125.281 14.9062C125.292 13.7396 125.453 12.6615 125.766 11.6719C126.089 10.6823 126.536 9.82292 127.109 9.09375C127.693 8.35417 128.391 7.78646 129.203 7.39062C130.016 6.98438 130.917 6.78125 131.906 6.78125C132.74 6.78125 133.49 6.89583 134.156 7.125C134.833 7.35417 135.417 7.72396 135.906 8.23438C136.396 8.73438 136.766 9.39062 137.016 10.2031C137.276 11.0052 137.406 11.9844 137.406 13.1406V24H133.625V13.1094C133.625 12.2969 133.505 11.651 133.266 11.1719C133.036 10.6927 132.698 10.349 132.25 10.1406C131.802 9.92188 131.255 9.8125 130.609 9.8125C129.932 9.8125 129.333 9.94792 128.812 10.2188C128.302 10.4896 127.875 10.8594 127.531 11.3281C127.188 11.7969 126.927 12.3385 126.75 12.9531C126.583 13.5677 126.5 14.224 126.5 14.9219ZM140.5 15.7344V15.375C140.5 14.1562 140.677 13.026 141.031 11.9844C141.385 10.9323 141.896 10.0208 142.562 9.25C143.24 8.46875 144.062 7.86458 145.031 7.4375C146.01 7 147.115 6.78125 148.344 6.78125C149.583 6.78125 150.688 7 151.656 7.4375C152.635 7.86458 153.464 8.46875 154.141 9.25C154.818 10.0208 155.333 10.9323 155.688 11.9844C156.042 13.026 156.219 14.1562 156.219 15.375V15.7344C156.219 16.9531 156.042 18.0833 155.688 19.125C155.333 20.1667 154.818 21.0781 154.141 21.8594C153.464 22.6302 152.641 23.2344 151.672 23.6719C150.703 24.099 149.604 24.3125 148.375 24.3125C147.135 24.3125 146.026 24.099 145.047 23.6719C144.078 23.2344 143.255 22.6302 142.578 21.8594C141.901 21.0781 141.385 20.1667 141.031 19.125C140.677 18.0833 140.5 16.9531 140.5 15.7344ZM144.266 15.375V15.7344C144.266 16.4948 144.344 17.2135 144.5 17.8906C144.656 18.5677 144.901 19.1615 145.234 19.6719C145.568 20.1823 145.995 20.5833 146.516 20.875C147.036 21.1667 147.656 21.3125 148.375 21.3125C149.073 21.3125 149.677 21.1667 150.188 20.875C150.708 20.5833 151.135 20.1823 151.469 19.6719C151.802 19.1615 152.047 18.5677 152.203 17.8906C152.37 17.2135 152.453 16.4948 152.453 15.7344V15.375C152.453 14.625 152.37 13.9167 152.203 13.25C152.047 12.5729 151.797 11.974 151.453 11.4531C151.12 10.9323 150.693 10.526 150.172 10.2344C149.661 9.93229 149.052 9.78125 148.344 9.78125C147.635 9.78125 147.021 9.93229 146.5 10.2344C145.99 10.526 145.568 10.9323 145.234 11.4531C144.901 11.974 144.656 12.5729 144.5 13.25C144.344 13.9167 144.266 14.625 144.266 15.375ZM163.156 10.3438V30.5H159.391V7.09375H162.859L163.156 10.3438ZM174.172 15.3906V15.7188C174.172 16.9479 174.026 18.0885 173.734 19.1406C173.453 20.1823 173.031 21.0938 172.469 21.875C171.917 22.6458 171.234 23.2448 170.422 23.6719C169.609 24.099 168.672 24.3125 167.609 24.3125C166.557 24.3125 165.635 24.1198 164.844 23.7344C164.062 23.3385 163.401 22.7812 162.859 22.0625C162.318 21.3438 161.88 20.5 161.547 19.5312C161.224 18.5521 160.995 17.4792 160.859 16.3125V15.0469C160.995 13.8073 161.224 12.6823 161.547 11.6719C161.88 10.6615 162.318 9.79167 162.859 9.0625C163.401 8.33333 164.062 7.77083 164.844 7.375C165.625 6.97917 166.536 6.78125 167.578 6.78125C168.641 6.78125 169.583 6.98958 170.406 7.40625C171.229 7.8125 171.922 8.39583 172.484 9.15625C173.047 9.90625 173.469 10.8125 173.75 11.875C174.031 12.9271 174.172 14.099 174.172 15.3906ZM170.406 15.7188V15.3906C170.406 14.6094 170.333 13.8854 170.188 13.2188C170.042 12.5417 169.812 11.9479 169.5 11.4375C169.188 10.9271 168.786 10.5312 168.297 10.25C167.818 9.95833 167.24 9.8125 166.562 9.8125C165.896 9.8125 165.323 9.92708 164.844 10.1562C164.365 10.375 163.964 10.6823 163.641 11.0781C163.318 11.474 163.068 11.9375 162.891 12.4688C162.714 12.9896 162.589 13.5573 162.516 14.1719V17.2031C162.641 17.9531 162.854 18.6406 163.156 19.2656C163.458 19.8906 163.885 20.3906 164.438 20.7656C165 21.1302 165.719 21.3125 166.594 21.3125C167.271 21.3125 167.849 21.1667 168.328 20.875C168.807 20.5833 169.198 20.1823 169.5 19.6719C169.812 19.151 170.042 18.5521 170.188 17.875C170.333 17.1979 170.406 16.4792 170.406 15.7188Z" fill="black"/>
</svg>
